# xmcd CD database file
#
# Track frame offsets:
#	150
#	26319
#	49158
#	61504
#	83649
#	104042
#	131733
#	154472
#	177378
#	209346
#	235314
#	264852
#	302002
#	324883
#
# Disc length: 4719 seconds
#
# Revision: 0
# Processed by: cddbd v1.5.2PL0 Copyright (c) Steve Scherf et al.
# Submitted via: CDex 1.50beta10
#
DISCID=b6126d0e
DTITLE=Bill Evans - Moon Beams 1thr8 Interplay
DYEAR=1962
DGENRE=Jazz
TTITLE0=Re: Person I Knew
TTITLE1=Polka Dots and Moonbeams
TTITLE2=I Fall In Love Too Easily
TTITLE3=StairwayTo The Stars
TTITLE4=If You Could See Me Now
TTITLE5=It Might As Well Be Spring
TTITLE6=In Love In Vain
TTITLE7=Very Early
TTITLE8=You and The Night and The Music
TTITLE9=When You Wish Upon A Star
TTITLE10=I'll Never Smile Again
TTITLE11=Interplay
TTITLE12=You Go To My Head
TTITLE13=Wrap Your Troubles In Dreams
EXTD=YEAR: 1962
EXTT0=
EXTT1=
EXTT2=
EXTT3=
EXTT4=
EXTT5=
EXTT6=
EXTT7=
EXTT8=
EXTT9=
EXTT10=
EXTT11=
EXTT12=
EXTT13=
PLAYORDER=
